<?xml version="1.0" encoding="utf-8"?>
<!-- Generator: Adobe Illustrator 22.0.1, SVG Export Plug-In . SVG Version: 6.00 Build 0)  -->
<svg version="1.1" id="Capa_1" xmlns="http://www.w3.org/2000/svg" xmlns:xlink="http://www.w3.org/1999/xlink" x="0px" y="0px"
	 viewBox="0 0 57.6 64.1" style="enable-background:new 0 0 57.6 64.1;" xml:space="preserve">
<g>
	<path d="M57.3,25.5L45.9,14.1L48,3.3l2.5-1.4C51,1.6,51.2,1,50.9,0.5S50-0.2,49.5,0.1l-3,1.6c-0.3,0.1-0.4,0.4-0.5,0.7l-1.9,10
		l-3.5-3.5c-2.7-2.7-7.2-2-9,1.4l0,0c-0.8-0.5-1.6-0.8-2.5-0.8c-1.1,0-2.2,0.5-3.1,1.3l-0.1-0.2c-1.8-3.5-6.5-4.2-9.3-1.4l-3,3
		l-1.8-9.8c-0.1-0.3-0.2-0.5-0.5-0.7l-3-1.6C7.8-0.2,7.2,0,6.9,0.5C6.8,1,6.9,1.6,7.4,1.9l2.5,1.4l2,10.6L0.3,25.5
		c-0.4,0.4-0.4,1,0,1.4s1,0.4,1.4,0l10.7-10.7l0.8,4.3c0,0.2,0.1,0.4,0.3,0.5l5.4,5.7c-1,1.8-1.8,3.6-2.4,5.7L9.6,38
		c-0.2,0.1-0.3,0.4-0.4,0.6L5.9,56l-2.7,1.6c-0.5,0.3-0.6,0.9-0.4,1.4c0.3,0.5,0.9,0.6,1.4,0.4l3.1-1.8c0.2-0.1,0.4-0.4,0.5-0.7
		l3.4-17.5l4.6-3.7c-1,6.2,0.2,12.7,3.7,18.2L17.4,56c-0.4,0.4-0.4,1,0,1.4s1,0.4,1.4,0l1.9-1.9c1.8,2.4,3,3.3,7.9,8.3
		c0.2,0.2,0.4,0.3,0.7,0.3s0.5-0.1,0.7-0.3c4.9-5,6-5.8,7.8-8.1l1.7,1.7c0.4,0.4,1,0.4,1.4,0s0.4-1,0-1.4l-2-2
		c3.5-5.5,4.8-12.1,3.8-18.3l4.6,3.7l3.4,17.5c0.1,0.3,0.2,0.5,0.5,0.7l3.1,1.8c0.5,0.3,1.1,0.1,1.4-0.4c0.3-0.5,0.1-1.1-0.4-1.4
		L52.6,56l-3.4-17.4c0-0.2-0.2-0.4-0.4-0.6l-6.9-5.5c-0.6-2.1-1.5-4.1-2.6-6.1l5.1-5.3c0.1-0.1,0.2-0.3,0.3-0.5l0.8-4L55.9,27
		c0.4,0.4,1,0.4,1.4,0C57.7,26.6,57.7,25.9,57.3,25.5z M29.2,11.5c3.5,0,10,12.2,0,12.2S25.7,11.5,29.2,11.5z M38.3,28.6
		c-6.8,1.8-12.8,1.9-18.2,0.1c0.9-1.7,2-3.4,3.4-4.9c1.2,1.2,3.2,1.8,5.8,1.8s4.5-0.6,5.8-1.9C36.3,25.3,37.4,26.9,38.3,28.6z
		 M15.2,19.9l-1-5.4l4-4c1.8-1.8,4.9-1.3,6.1,0.9l0.4,0.8l0,0c-1.8,2.4-3.5,6.8-2.4,9.8c-0.8,1-1.6,2-2.3,3L15.2,19.9z M29.2,61.6
		c-0.9-1.4-17.4-12.7-10-31c6.6,2.2,13.1,1.8,19.9-0.1C46.8,48.9,30.2,60,29.2,61.6z M42.8,19.9l-4.5,4.8c-0.6-0.9-1.3-1.7-2.1-2.6
		c1.2-3.1-0.7-8-2.9-10.4c0.1-0.1,2.7-4.7,6-1.3l4.4,4.5L42.8,19.9z"/>
</g>
</svg>
